<svg width="100" height="100" viewBox="0 0 100 100" fill="none" xmlns="http://www.w3.org/2000/svg">
  <path d="M50 0C22.4 0 0 22.4 0 50C0 77.6 22.4 100 50 100C77.6 100 100 77.6 100 50C100 22.4 77.6 0 50 0ZM50 90C27.9 90 10 72.1 10 50C10 27.9 27.9 10 50 10C72.1 10 90 27.9 90 50C90 72.1 72.1 90 50 90Z" fill="#4a9ca8"/>
  <path d="M70 30C60 20 40 20 30 30C20 40 20 60 30 70C40 80 60 80 70 70C80 60 80 40 70 30ZM65 65C58.3 71.7 41.7 71.7 35 65C28.3 58.3 28.3 41.7 35 35C41.7 28.3 58.3 28.3 65 35C71.7 41.7 71.7 58.3 65 65Z" fill="#4a9ca8"/>
  <path d="M60 40C55 35 45 35 40 40C35 45 35 55 40 60C45 65 55 65 60 60C65 55 65 45 60 40ZM55 55C52.5 57.5 47.5 57.5 45 55C42.5 52.5 42.5 47.5 45 45C47.5 42.5 52.5 42.5 55 45C57.5 47.5 57.5 52.5 55 55Z" fill="#ff8fa3"/>
</svg>